<?xml version="1.0" encoding="UTF-8"?>
<svg version="1.1" xmlns="http://www.w3.org/2000/svg" width="706" height="353">
<path d="M0 0 C1.23878906 0.20625 2.47757813 0.4125 3.75390625 0.625 C14.71999205 2.60451908 25.24435758 5.76222923 35.08984375 11.05078125 C37.27947417 12.1388798 39.51121924 12.92528436 41.8125 13.75 C46.96419035 15.74241029 51.02293562 18.7154932 55.359375 22.09765625 C58.12406467 24.08937795 60.93817217 25.51765301 64 27 C67.68509773 29.69641298 70.78751958 32.76505468 74 36 C75.14801715 37.1488577 76.29648071 38.29726942 77.4453125 39.4453125 C80.96354167 42.96354167 84.48177083 46.48177083 88 50 C88.56058105 50.49870605 89.12116211 50.99741211 89.69873047 51.51123047 C91 53 91 53 91 56 C91.99 56.33 92.98 56.66 94 57 C97.45551198 61.43014357 100.30197159 66.07609816 103 71 C103.4640625 71.81339844 103.928125 72.62679687 104.40625 73.46484375 C108.15174197 80.12455779 111.20110478 86.8957978 114 94 C114.44601562 95.09957031 114.89203125 96.19914062 115.3515625 97.33203125 C117.80939282 103.50535362 119.9700417 109.43026601 121 116 C121.27650391 117.65708984 121.27650391 117.65708984 121.55859375 119.34765625 C125.66857268 146.73122023 125.28242598 178.43531338 113.0234375 203.8359375 C111.76758042 206.49145209 110.70993739 209.20788044 109.625 211.9375 C107.29332978 217.56093993 104.68197579 223.1194925 101 228 C100.34 228 99.68 228 99 228 C98.90460938 228.55558594 98.80921875 229.11117187 98.7109375 229.68359375 C97.82096787 232.58332995 96.38710395 234.59778498 94.625 237.0625 C94.01914062 237.91972656 93.41328125 238.77695312 92.7890625 239.66015625 C91.28230728 241.63078153 89.77671785 243.2840646 88 245 C86.86635268 246.28408393 85.74182022 247.57625431 84.625 248.875 C73.02541119 262.17327336 73.02541119 262.17327336 67.09765625 264.86328125 C64.79884998 265.97249597 64.79884998 265.97249597 62.73828125 268.34375 C59.49511903 271.48975615 56.14760781 273.39000795 52.1875 275.5 C50.74776419 276.28344276 49.3089485 277.06857899 47.87109375 277.85546875 C47.19288574 278.22591309 46.51467773 278.59635742 45.81591797 278.97802734 C43.72130393 280.15684616 41.73437318 281.45742064 39.75 282.8125 C35.79513589 285.35056664 31.5366018 286.64323027 27.0703125 288.03125 C24.18470537 288.94172146 21.38558777 289.97606389 18.5625 291.0625 C-5.92786121 299.98398873 -32.69507491 299.87248733 -58 295 C-59.04800781 294.80664062 -60.09601563 294.61328125 -61.17578125 294.4140625 C-74.71837631 291.46419031 -88.61267702 286.05470858 -100.33984375 278.6640625 C-104.0769465 276.32631541 -107.99192506 274.35890512 -111.91796875 272.359375 C-114 271 -114 271 -115 268 C-116.76591887 266.99083967 -116.76591887 266.99083967 -119 266 C-123.24848578 263.37859388 -126.52019339 260.55889313 -130 257 C-131.6838471 255.51667629 -133.37171677 254.0379126 -135.0625 252.5625 C-138.73399963 249.28089413 -141.40517673 246.20540323 -144 242 C-145.09054791 240.77936135 -146.19635341 239.57227619 -147.3125 238.375 C-151.74132049 233.4151004 -154.79349106 227.79340263 -158 222 C-158.43054688 221.28328125 -158.86109375 220.5665625 -159.3046875 219.828125 C-178.71393447 187.09880658 -182.08074765 144.6560763 -172.828125 108.20703125 C-171.09960496 101.84096898 -169.19419073 95.61180393 -165.96875 89.82421875 C-164.77139973 87.56953095 -163.86478618 85.25292705 -162.9375 82.875 C-161.47423455 79.12718969 -159.87318025 75.55904248 -158 72 C-157.34 72 -156.68 72 -156 72 C-155.6596875 71.01 -155.6596875 71.01 -155.3125 70 C-153.12065148 64.99006054 -150.02671399 60.54007099 -147 56 C-146.34 56 -145.68 56 -145 56 C-144.731875 55.41476563 -144.46375 54.82953125 -144.1875 54.2265625 C-137.6129474 41.89927638 -123.29083634 29.53115291 -111.01953125 23.11328125 C-108.83282643 21.98249738 -108.83282643 21.98249738 -106.5 20 C-100.50662918 15.20530334 -93.82863041 12.45000048 -86.625 9.96875 C-84.27267433 9.10062981 -82.1469407 8.11349263 -79.9375 6.9375 C-57.10599246 -4.82279362 -24.64257231 -4.43510863 0 0 Z M-88 24 C-89.31098704 24.64889902 -90.62353204 25.29465853 -91.9375 25.9375 C-96.37067984 28.14968318 -100.6868372 30.56386175 -105 33 C-105 33.66 -105 34.32 -105 35 C-105.763125 35.28875 -106.52625 35.5775 -107.3125 35.875 C-110.15029308 36.96269013 -110.15029308 36.96269013 -113 39 C-113 39.66 -113 40.32 -113 41 C-113.99 41 -114.98 41 -116 41 C-117.35156675 42.65191491 -118.679762 44.32294092 -120 46 C-121.25161386 47.12590592 -122.5245075 48.2283982 -123.8125 49.3125 C-127.93319887 52.83790091 -131.77849865 56.62077161 -135 61 C-135 61.66 -135 62.32 -135 63 C-135.66 63 -136.32 63 -137 63 C-138.37352495 64.72689896 -138.37352495 64.72689896 -139.71484375 66.98046875 C-140.23626953 67.81513672 -140.75769531 68.64980469 -141.29492188 69.50976562 C-141.83697266 70.39341797 -142.37902344 71.27707031 -142.9375 72.1875 C-143.74477539 73.48397461 -143.74477539 73.48397461 -144.56835938 74.80664062 C-145.60633527 76.47687311 -146.63948121 78.1501191 -147.66723633 79.82666016 C-148.68537664 81.48694318 -149.71832876 83.13815201 -150.7578125 84.78515625 C-152.12214544 87.21778762 -153.03860714 89.61119005 -153.9375 92.25 C-155.18765979 95.81846377 -156.52747207 99.26083229 -158.125 102.6875 C-161.76597834 110.75169813 -162.79057454 119.30026729 -164 128 C-164.17917969 129.23363281 -164.35835937 130.46726562 -164.54296875 131.73828125 C-167.4622755 155.66917706 -164.66148195 182.62061643 -153 204 C-152.54625 205.134375 -152.0925 206.26875 -151.625 207.4375 C-149.91574537 211.18471207 -147.85019045 214.32847819 -145.51171875 217.703125 C-144.13197116 219.79948568 -143.04083539 221.87605582 -141.9375 224.125 C-136.30577426 234.52906476 -124.27745535 250.0413042 -113 254 C-113 254.66 -113 255.32 -113 256 C-107.10619802 261.0616017 -100.47803671 265.0490529 -93.609375 268.62890625 C-91.22299055 269.88282982 -88.93523771 271.23801422 -86.625 272.625 C-82.07021304 275.16174078 -77.35159387 276.6059537 -72.3515625 278.03125 C-70.24541661 278.64001944 -68.15269909 279.29984911 -66.0859375 280.03125 C-40.48079995 288.94913432 -10.84381995 288.04337743 14.609375 279.171875 C17.40397545 278.20599927 20.13416085 277.45222549 23 276.75 C33.68504049 273.58607092 44.01284793 266.43544282 53 260 C53.9075 259.36964844 54.815 258.73929688 55.75 258.08984375 C61.61536629 253.88174893 66.88577246 249.39554323 72 244.3125 C72.53979492 243.77810303 73.07958984 243.24370605 73.63574219 242.69311523 C76.1273968 240.15637877 78.31746383 237.65858631 80.25 234.66796875 C82 232 82 232 84 231 C84 230.34 84 229.68 84 229 C84.66 229 85.32 229 86 229 C86.556875 227.824375 87.11375 226.64875 87.6875 225.4375 C89.02348415 222.61708901 90.4780054 220.36160601 92.36328125 217.84375 C95.47225091 213.55794844 97.46849241 208.93125893 99.5 204.0625 C99.88873291 203.13735596 100.27746582 202.21221191 100.67797852 201.2590332 C112.82705698 171.87150025 116.84411395 135.24115692 105 105 C104.39091797 103.36224609 104.39091797 103.36224609 103.76953125 101.69140625 C102.54920915 98.44347206 101.30825357 95.21358798 100 92 C99.72921631 91.32791504 99.45843262 90.65583008 99.17944336 89.96337891 C96.58529854 83.80067337 93.2353913 78.32439959 89.5625 72.75 C89.00240234 71.87859375 88.44230469 71.0071875 87.86523438 70.109375 C84.9105489 65.58598254 81.97558901 61.70005314 78 58 C76.51071874 56.3423652 75.03138596 54.67573442 73.5625 53 C70.23388839 49.27394223 66.90040717 46.10259662 63 43 C62.195625 42.175 61.39125 41.35 60.5625 40.5 C55.66374517 35.720727 50.14074753 32.4013193 44.11328125 29.2109375 C42 28 42 28 40.0078125 26.46875 C37.90206855 24.92836143 35.99577007 24.05235082 33.5625 23.125 C32.69367188 22.78984375 31.82484375 22.4546875 30.9296875 22.109375 C29.96289062 21.74328125 28.99609375 21.3771875 28 21 C25.72903694 20.12533673 23.45820652 19.25032904 21.1875 18.375 C20.12917969 17.97023438 19.07085937 17.56546875 17.98046875 17.1484375 C16.19853568 16.46182109 14.4249506 15.75181888 12.67163086 14.99511719 C-17.76952112 3.65653221 -59.98164399 8.91790902 -88 24 Z " fill="#E6E6E6" transform="translate(380,32)"/>
<path d="M0 0 C1.62357027 0.50462319 3.24837704 1.00530539 4.875 1.5 C12.27370771 3.99826494 18.70529923 8.39265156 25.25 12.5625 C26.13594849 13.12638428 26.13594849 13.12638428 27.03979492 13.70166016 C30.52374971 15.95201205 33.89750032 18.24157453 37 21 C37 21.66 37 22.32 37 23 C37.73089844 23.22945312 38.46179688 23.45890625 39.21484375 23.6953125 C42.54627224 25.25589752 44.18281254 27.08559244 46.5625 29.875 C48.73051334 32.3924505 50.85378274 34.85711167 53.23046875 37.1796875 C55.13900234 39.14299137 55.61807341 40.32651387 56 43 C56.66 43 57.32 43 58 43 C63.91120646 49.03308701 67.48142046 56.43085409 71 64 C71.51691406 65.05574219 72.03382813 66.11148438 72.56640625 67.19921875 C76.14376961 74.63188598 78.8682088 82.03433376 81 90 C81.433125 91.51013672 81.433125 91.51013672 81.875 93.05078125 C89.80986496 124.29431202 84.17298468 158.89734826 69 187 C68.62359375 187.75410156 68.2471875 188.50820312 67.859375 189.28515625 C60.34048146 203.87286872 48.13884362 217.42280522 35.25 227.4375 C34.63092773 227.91904541 34.01185547 228.40059082 33.37402344 228.89672852 C26.31675026 234.34598049 19.751261 238.93616089 11.34765625 242.06640625 C9.19755786 242.92143706 7.29915854 243.88472704 5.3125 245.0625 C-1.40869897 248.99376732 -7.64993177 250.73609864 -15.25 252.125 C-17.02634301 252.45934042 -18.80239872 252.79521185 -20.578125 253.1328125 C-21.35575195 253.27605957 -22.13337891 253.41930664 -22.93457031 253.56689453 C-25.1821518 253.99694001 -25.1821518 253.99694001 -28 255 C-64.61297948 258.3557268 -99.368782 251.65608173 -129 229 C-129.80050781 228.401875 -130.60101563 227.80375 -131.42578125 227.1875 C-145.50748805 216.49369974 -158.23638774 201.48939769 -165.81640625 185.484375 C-166.59532373 183.8494195 -167.41512543 182.23322398 -168.27734375 180.640625 C-172.00787065 173.70116463 -174.01511805 166.59812809 -176 159 C-176.36351562 157.79730469 -176.72703125 156.59460938 -177.1015625 155.35546875 C-183.14830678 134.23536554 -182.25698313 111.16770502 -176.56494141 90.09228516 C-176.1999653 88.74058022 -175.84475897 87.38618214 -175.50146484 86.02880859 C-171.71097878 71.1427422 -164.62081809 54.31833414 -154 43 C-153.34 43 -152.68 43 -152 43 C-151.76925781 42.278125 -151.53851563 41.55625 -151.30078125 40.8125 C-149.75073816 37.46105548 -147.84664545 35.55150388 -145.1875 33 C-144.33542969 32.175 -143.48335938 31.35 -142.60546875 30.5 C-141.74566406 29.675 -140.88585937 28.85 -140 28 C-139.10925781 27.071875 -138.21851563 26.14375 -137.30078125 25.1875 C-135 23 -135 23 -133 23 C-133 22.34 -133 21.68 -133 21 C-132.01 21 -131.02 21 -130 21 C-129.7215625 20.1646875 -129.7215625 20.1646875 -129.4375 19.3125 C-125.85868816 13.55528095 -118.55482323 10.54596611 -112.73046875 7.47265625 C-111.10057416 6.59358577 -109.48932088 5.67589668 -107.92578125 4.68359375 C-101.46693566 0.63571213 -94.41916583 -1.00333477 -87.109375 -2.88671875 C-84.77922114 -3.49080378 -82.67688875 -4.131711 -80.44140625 -5.04296875 C-55.27631355 -14.90768509 -24.43593411 -8.89950687 0 0 Z M-120.80078125 21.3359375 C-122.81543137 22.86034416 -124.73955067 23.90083859 -127 25 C-129.25065102 26.91666921 -129.25065102 26.91666921 -131 29 C-131 29.66 -131 30.32 -131 31 C-131.556875 31.226875 -132.11375 31.45375 -132.6875 31.6875 C-135.64460641 33.36585769 -137.71201713 35.53335852 -140 38 C-140.70769531 38.73734375 -141.41539062 39.4746875 -142.14453125 40.234375 C-146.57204702 44.96293247 -150.16934268 49.45647306 -153.02734375 55.28515625 C-154 57 -154 57 -156 58 C-157.3340514 60.50284868 -158.5642722 62.99001663 -159.75 65.5625 C-160.28016724 66.7057373 -160.28016724 66.7057373 -160.82104492 67.87207031 C-168.78893293 85.30823435 -173.544249 101.48861186 -173.44604492 120.7644043 C-173.43754579 123.29884531 -173.46638447 125.83101482 -173.49804688 128.36523438 C-173.5628031 143.04533686 -170.59590157 155.91913884 -165.3125 169.625 C-164.9721875 170.51106934 -164.631875 171.39713867 -164.28125 172.31005859 C-161.09730731 180.28294053 -157.02647122 187.04905815 -152 194 C-150.92492187 195.54494141 -150.92492187 195.54494141 -149.828125 197.12109375 C-146.5133333 201.81289478 -143.18370406 206.04244211 -139 210 C-138.236875 210.969375 -137.47375 211.93875 -136.6875 212.9375 C-133.643181 216.65727728 -129.88347121 219.21879223 -126 222 C-125.41734375 222.46019531 -124.8346875 222.92039062 -124.234375 223.39453125 C-113.85228156 231.58735716 -102.52142328 237.77024307 -90 242 C-89.22398437 242.28359375 -88.44796875 242.5671875 -87.6484375 242.859375 C-64.03320971 251.27498345 -36.8730982 251.5473974 -13 244 C-11.79214844 243.62746094 -10.58429688 243.25492188 -9.33984375 242.87109375 C6.92431625 237.74065074 24.00457692 229.39527051 36 217 C36.763125 216.4225 37.52625 215.845 38.3125 215.25 C42.667152 211.60424484 47.17971976 207.46084071 49 202 C49.99 201.67 50.98 201.34 52 201 C53.70592553 198.79525547 53.70592553 198.79525547 55.3125 196.0625 C55.92480469 195.06089844 56.53710938 194.05929688 57.16796875 193.02734375 C57.77253906 192.02832031 58.37710938 191.02929688 59 190 C59.53238281 189.17628906 60.06476563 188.35257813 60.61328125 187.50390625 C64.1384605 181.95653115 66.59456522 176.3270903 68.84375 170.15625 C69.85638217 167.39203785 70.96586167 164.7046561 72.125 162 C76.76860155 150.14543915 77.50658593 138.90956359 77.44604492 126.32617188 C77.4375346 123.63593902 77.46639664 120.9478372 77.49804688 118.2578125 C77.55968905 103.54765651 74.7346635 91.31072177 69.0625 77.6875 C68.71767578 76.84155273 68.37285156 75.99560547 68.01757812 75.12402344 C65.60854801 69.28156255 63.03660521 63.54764413 60 58 C59.34 58 58.68 58 58 58 C57.7525 57.29875 57.505 56.5975 57.25 55.875 C55.01518876 50.73493414 51.70094837 46.19440815 48 42 C47.34 42 46.68 42 46 42 C45.773125 41.443125 45.54625 40.88625 45.3125 40.3125 C43.23013258 36.64356693 40.54219791 33.77109895 36.75 31.875 C35 31 35 31 34 28 C33.34 28 32.68 28 32 28 C31.79375 27.401875 31.5875 26.80375 31.375 26.1875 C29.471842 23.15974863 27.21634935 22.57893513 24 21 C22.68702102 19.93730274 21.39042748 18.85422498 20.10546875 17.7578125 C14.52122517 13.35571382 8.43120813 10.83161352 1.875 8.1875 C0.73417969 7.71119141 -0.40664063 7.23488281 -1.58203125 6.74414062 C-39.06717266 -8.73317386 -88.47114225 -4.14205116 -120.80078125 21.3359375 Z " fill="#D3D3D3" transform="translate(401,56)"/>
<path d="M0 0 C1.51400391 0.01740234 1.51400391 0.01740234 3.05859375 0.03515625 C4.07050781 0.04417969 5.08242188 0.05320312 6.125 0.0625 C6.90746094 0.07410156 7.68992187 0.08570312 8.49609375 0.09765625 C12.3687225 7.34853561 15.51992779 14.58653915 18.31054688 22.30151367 C20.01749599 26.96818262 22.02862385 31.33341635 24.34375 35.734375 C26.04353163 39.22036783 27.25399807 42.8504606 28.53125 46.5078125 C29.64627815 49.50078279 31.02823314 52.26084441 32.5 55.08984375 C34.93329042 59.99459385 36.78632052 65.1784668 38.68359375 70.30859375 C40.54044939 75.28728793 42.35173059 80.07675605 45.05859375 84.66015625 C47.60678607 88.99208319 49.02700669 93.47146001 50.53125 98.25 C51.59488243 101.38922285 52.94974178 104.19372881 54.5 107.11328125 C55.6251615 109.35477945 56.52920936 111.63360585 57.43359375 113.97265625 C58.12067929 115.68115632 58.80818816 117.3894862 59.49609375 119.09765625 C59.82996094 119.98324219 60.16382813 120.86882812 60.5078125 121.78125 C63.12643848 127.96488258 65.84961792 130.63870761 72.046875 133.26953125 C74.85255744 134.21818305 77.5397637 134.86426177 80.49609375 135.09765625 C80.49609375 136.74765625 80.49609375 138.39765625 80.49609375 140.09765625 C77.5027304 141.09544403 75.52373141 141.22433022 72.39794922 141.22705078 C71.3603244 141.23020294 70.32269958 141.2333551 69.25363159 141.23660278 C67.57540817 141.23356644 67.57540817 141.23356644 65.86328125 141.23046875 C64.14191452 141.23190384 64.14191452 141.23190384 62.38577271 141.23336792 C59.95981796 141.23404867 57.5338614 141.23220171 55.10791016 141.22802734 C51.37919056 141.22266789 47.65059089 141.22798095 43.921875 141.234375 C41.56901015 141.23371439 39.21614537 141.23243359 36.86328125 141.23046875 C35.74041718 141.23249298 34.6175531 141.23451721 33.46066284 141.23660278 C32.42934235 141.23345062 31.39802185 141.23029846 30.33544922 141.22705078 C29.42294403 141.22625519 28.51043884 141.22545959 27.57028198 141.22463989 C25.49609375 141.09765625 25.49609375 141.09765625 24.49609375 140.09765625 C24.45545543 138.4314851 24.45337275 136.7637753 24.49609375 135.09765625 C25.19476563 134.96488281 25.8934375 134.83210937 26.61328125 134.6953125 C27.97839844 134.43041016 27.97839844 134.43041016 29.37109375 134.16015625 C30.27601563 133.98613281 31.1809375 133.81210938 32.11328125 133.6328125 C34.49565692 133.19801924 34.49565692 133.19801924 36.49609375 132.09765625 C36.89480518 125.45246575 37.13393445 120.10419701 33.703125 114.28515625 C32.16788398 111.50284243 31.10855708 108.63590956 29.99609375 105.66015625 C28.25226363 101.02070698 26.39483943 96.48801076 24.29296875 92 C23.49609375 90.09765625 23.49609375 90.09765625 22.49609375 86.09765625 C5.99609375 86.09765625 -10.50390625 86.09765625 -27.50390625 86.09765625 C-28.82390625 89.72765625 -30.14390625 93.35765625 -31.50390625 97.09765625 C-32.32925233 99.28818234 -33.16110856 101.4762852 -34.00390625 103.66015625 C-34.42027344 104.75199219 -34.83664062 105.84382813 -35.265625 106.96875 C-36.03647286 108.91653906 -36.84537928 110.85022302 -37.7109375 112.7578125 C-40.51875647 119.01835586 -40.97136296 124.26759432 -40.50390625 131.09765625 C-35.79983826 132.96306252 -31.55646589 134.4660863 -26.50390625 135.09765625 C-26.50390625 136.74765625 -26.50390625 138.39765625 -26.50390625 140.09765625 C-41.35390625 140.09765625 -56.20390625 140.09765625 -71.50390625 140.09765625 C-71.50390625 138.44765625 -71.50390625 136.79765625 -71.50390625 135.09765625 C-70.611875 134.84371094 -69.71984375 134.58976563 -68.80078125 134.328125 C-67.6303125 133.98394531 -66.45984375 133.63976562 -65.25390625 133.28515625 C-64.09375 132.94871094 -62.93359375 132.61226562 -61.73828125 132.265625 C-56.85983563 130.50396408 -54.76857937 128.90798382 -52.46875 124.296875 C-51.78210468 122.79789784 -51.10662864 121.29376272 -50.44140625 119.78515625 C-49.76359314 118.28880312 -49.08521747 116.79270469 -48.40625 115.296875 C-48.08382324 114.57419434 -47.76139648 113.85151367 -47.42919922 113.10693359 C-46.6403532 111.39395135 -45.7695144 109.71912312 -44.8828125 108.0546875 C-43.53565021 105.16573041 -42.82900204 102.40177064 -42.11621094 99.30664062 C-40.91652132 94.97857379 -38.95799917 90.93944886 -37.12890625 86.84765625 C-34.29033965 80.3746737 -31.68960721 73.97943834 -29.5859375 67.2265625 C-27.84618865 62.19573641 -25.67837374 57.34870348 -23.57495117 52.46118164 C-20.97064029 46.35249159 -18.66758681 40.18461221 -16.58251953 33.88012695 C-15.42622767 30.44606908 -14.12500757 27.24605688 -12.4609375 24.0234375 C-10.68985821 20.58961844 -9.48941104 17.20192005 -8.44140625 13.47265625 C-4.69263479 0.18302008 -4.69263479 0.18302008 0 0 Z M-4.50390625 23.09765625 C-6.52396019 27.44077223 -8.03037282 31.74838981 -9.37890625 36.34765625 C-10.623883 40.50229457 -12.00039518 44.37761238 -13.87890625 48.28515625 C-16.60514226 53.99083904 -18.52731941 59.89241254 -20.44873047 65.9050293 C-20.80668701 67.01938354 -20.80668701 67.01938354 -21.171875 68.15625 C-21.38094482 68.81939209 -21.59001465 69.48253418 -21.80541992 70.16577148 C-22.50390625 72.09765625 -22.50390625 72.09765625 -23.5871582 74.15649414 C-24.71742619 76.19198091 -24.71742619 76.19198091 -24.50390625 79.09765625 C-9.98390625 79.09765625 4.53609375 79.09765625 19.49609375 79.09765625 C17.79879956 73.13794515 17.79879956 73.13794515 15.68359375 67.41015625 C15.33683594 66.56324219 14.99007812 65.71632812 14.6328125 64.84375 C14.25769531 63.93753906 13.88257813 63.03132813 13.49609375 62.09765625 C13.09003906 61.09863281 12.68398438 60.09960938 12.265625 59.0703125 C10.45958654 54.66357865 8.66172451 50.30926027 6.43359375 46.09765625 C4.73915381 42.83807098 3.61054551 39.5346215 2.49609375 36.03515625 C0.97593394 31.27560827 -0.82609111 27.30565147 -3.50390625 23.09765625 C-3.83390625 23.09765625 -4.16390625 23.09765625 -4.50390625 23.09765625 Z " fill="#EAEAEA" transform="translate(349.50390625,108.90234375)"/>
<path d="M0 0 C2.92610426 8.83843822 -4.60228665 21.2502954 -7.97412109 29.3359375 C-12.06200877 39.95160393 -12.50318749 50.54828834 -12.44604492 61.7644043 C-12.43754579 64.29884531 -12.46638447 66.83101482 -12.49804688 69.36523438 C-12.5628031 84.04533686 -9.59590157 96.91913884 -4.3125 110.625 C-3.9721875 111.51106934 -3.631875 112.39713867 -3.28125 113.31005859 C-0.09730731 121.28294053 3.97352878 128.04905815 9 135 C10.07507813 136.54494141 10.07507813 136.54494141 11.171875 138.12109375 C13.88858283 141.96635878 16.5430401 145.72225506 19.9375 149 C22 151 22 151 23 154 C23.99 154.33 24.98 154.66 26 155 C26 155.66 26 156.32 26 157 C26.74636719 157.25652344 27.49273437 157.51304687 28.26171875 157.77734375 C31.1308287 159.05841567 32.61639819 160.34850734 34.8125 162.5625 C41.06996543 168.32650758 48.50224274 172.09497567 56 176 C56.66797607 176.35118896 57.33595215 176.70237793 58.02416992 177.06420898 C83.58564566 190.22289263 111.1044227 189.84651575 139 188 C140.125 191.75 140.125 191.75 139 194 C132.79400869 196.39090347 126.52820276 196.47738875 119.9375 196.6875 C118.81714355 196.72512451 117.69678711 196.76274902 116.54248047 196.80151367 C85.39453935 197.69823105 55.91373791 189.0490881 31 170 C30.19949219 169.401875 29.39898437 168.80375 28.57421875 168.1875 C14.49251195 157.49369974 1.76361226 142.48939769 -5.81640625 126.484375 C-6.59532373 124.8494195 -7.41512543 123.23322398 -8.27734375 121.640625 C-12.00787065 114.70116463 -14.01511805 107.59812809 -16 100 C-16.36351562 98.79730469 -16.72703125 97.59460938 -17.1015625 96.35546875 C-24.35638999 71.01576555 -21.02190916 45.08304179 -13.4375 20.3125 C-13.14117676 19.34195679 -13.14117676 19.34195679 -12.83886719 18.35180664 C-11.56839373 14.35776879 -9.96131823 10.70092222 -8 7 C-7.01 7 -6.02 7 -5 7 C-4.9175 6.401875 -4.835 5.80375 -4.75 5.1875 C-3.79544128 2.4033704 -2.42867729 1.56688858 0 0 Z M141 187 C141.99 187.495 141.99 187.495 143 188 C142.01 188.495 142.01 188.495 141 189 C141 188.34 141 187.68 141 187 Z " fill="#D6D6D5" transform="translate(241,115)"/>
<path d="M0 0 C0 0.99 0 1.98 0 3 C1.94009522 4.70532323 1.94009522 4.70532323 4 6 C3.5675642 10.99181323 0.94633172 14.07839656 -2.125 17.8125 C-2.87160889 18.73953735 -2.87160889 18.73953735 -3.63330078 19.68530273 C-10.68796597 28.39793993 -17.87075945 36.53828649 -26.75 43.4375 C-27.36907227 43.91904541 -27.98814453 44.40059082 -28.62597656 44.89672852 C-35.68324974 50.34598049 -42.248739 54.93616089 -50.65234375 58.06640625 C-52.80244214 58.92143706 -54.70084146 59.88472704 -56.6875 61.0625 C-65.26225672 66.07792374 -73.1575527 68.35151597 -83 68 C-83 66.35 -83 64.7 -83 63 C-83.99 62.67 -84.98 62.34 -86 62 C-85.37996094 61.84144531 -84.75992187 61.68289063 -84.12109375 61.51953125 C-66.20810169 56.80009666 -48.80617264 50.60190844 -34.23828125 38.75390625 C-32 37 -32 37 -30 37 C-29.67 36.01 -29.34 35.02 -29 34 C-27.33333333 33.33333333 -25.66666667 32.66666667 -24 32 C-23.505 30.515 -23.505 30.515 -23 29 C-22.34 29 -21.68 29 -21 29 C-20.59394531 28.11828125 -20.59394531 28.11828125 -20.1796875 27.21875 C-19.0130184 25.02448495 -17.75960911 23.363285 -16.125 21.5 C-15.59132813 20.88898438 -15.05765625 20.27796875 -14.5078125 19.6484375 C-13 18 -13 18 -11 16.125 C-6.56419836 11.41196076 -3.23959951 5.57931026 0 0 Z M-81 62 C-80.67 62.66 -80.34 63.32 -80 64 C-79.67 63.34 -79.34 62.68 -79 62 C-79.66 62 -80.32 62 -81 62 Z " fill="#D0D0CF" transform="translate(463,240)"/>
<path d="M0 0 C5.16943446 6.79289322 5.16943446 6.79289322 4.8515625 10.93359375 C3.49029075 18.13806026 0.12861214 24.51650592 -2.9921875 31.08984375 C-5.39735418 36.69044616 -5.29925339 41.97059838 -5 48 C-0.29593201 49.86540627 3.94744036 51.36843005 9 52 C9 53.65 9 55.3 9 57 C-5.85 57 -20.7 57 -36 57 C-36 55.35 -36 53.7 -36 52 C-35.10796875 51.74605469 -34.2159375 51.49210937 -33.296875 51.23046875 C-32.12640625 50.88628906 -30.9559375 50.54210937 -29.75 50.1875 C-28.58984375 49.85105469 -27.4296875 49.51460937 -26.234375 49.16796875 C-21.35592938 47.40630783 -19.26467312 45.81032757 -16.96484375 41.19921875 C-16.27819843 39.70024159 -15.60272239 38.19610647 -14.9375 36.6875 C-14.25968689 35.19114687 -13.58131122 33.69504844 -12.90234375 32.19921875 C-12.58144775 31.48233887 -12.26055176 30.76545898 -11.92993164 30.02685547 C-11.10142352 28.22106014 -10.20732014 26.44568994 -9.3046875 24.67578125 C-7.98851866 21.97645294 -7.39316754 19.41566767 -6.73828125 16.5 C-5.05969057 10.8158834 -2.41451137 5.40607577 0 0 Z " fill="#DBDBDB" transform="translate(314,192)"/>
<path d="M0 0 C2.92610426 8.83843822 -4.60228665 21.2502954 -7.97412109 29.3359375 C-12.06200877 39.95160393 -12.50318749 50.54828834 -12.44604492 61.7644043 C-12.43754579 64.29884531 -12.46638447 66.83101482 -12.49804688 69.36523438 C-12.53697868 78.97811696 -11.57463937 87.46897726 -8.85961914 96.70385742 C-8.08921293 99.65791997 -7.81865515 101.97387512 -8 105 C-10.8125 104.875 -10.8125 104.875 -14 104 C-24.97819178 85.5598588 -22.64183323 55.44704361 -17.72607422 35.42895508 C-16.41650624 30.3551054 -14.971585 25.3227936 -13.4375 20.3125 C-13.14117676 19.34195679 -13.14117676 19.34195679 -12.83886719 18.35180664 C-11.56839373 14.35776879 -9.96131823 10.70092222 -8 7 C-7.01 7 -6.02 7 -5 7 C-4.9175 6.401875 -4.835 5.80375 -4.75 5.1875 C-3.79544128 2.4033704 -2.42867729 1.56688858 0 0 Z " fill="#DEDEDE" transform="translate(241,115)"/>
<path d="M0 0 C16.40117613 3.15853039 32.47241623 11.88000992 45 23 C45 23.66 45 24.32 45 25 C45.73089844 25.22945312 46.46179688 25.45890625 47.21484375 25.6953125 C50.54627224 27.25589752 52.18281254 29.08559244 54.5625 31.875 C56.73051334 34.3924505 58.85378274 36.85711167 61.23046875 39.1796875 C63.13900234 41.14299137 63.61807341 42.32651387 64 45 C64.66 45 65.32 45 66 45 C67.7265625 46.96875 67.7265625 46.96875 69.625 49.5 C70.25664062 50.3353125 70.88828125 51.170625 71.5390625 52.03125 C72.02117187 52.6809375 72.50328125 53.330625 73 54 C72.505 54.99 72.505 54.99 72 56 C70.5 54.625 70.5 54.625 69 53 C69 52.34 69 51.68 69 51 C67.35 50.67 65.7 50.34 64 50 C63.34 51.32 62.68 52.64 62 54 C61.566875 53.236875 61.13375 52.47375 60.6875 51.6875 C59.16247642 49.03713747 59.16247642 49.03713747 57.3125 47.3125 C56.879375 46.879375 56.44625 46.44625 56 46 C56 45.34 56 44.68 56 44 C55.34 44 54.68 44 54 44 C53.08843307 42.54824526 52.17690833 41.09646402 51.265625 39.64453125 C49.44716103 37.2816506 47.19485113 35.91708266 44.7265625 34.2890625 C42.94936136 32.96219287 41.77885321 31.63174001 40.4375 29.875 C37.74853144 26.70339605 35.71203615 25.78463277 32 24 C30.64709422 22.92303755 29.3115435 21.82412175 27.98828125 20.7109375 C23.00230656 16.7781879 17.80293782 14.40949147 11.9375 12.0625 C10.97650391 11.66482422 10.01550781 11.26714844 9.02539062 10.85742188 C6.68839504 9.89239385 4.34703198 8.94028952 2 8 C2.99 7.67 3.98 7.34 5 7 C4.60196439 4.11424181 4.20990931 3.17810487 1.9375 1.25 C1.298125 0.8375 0.65875 0.425 0 0 Z " fill="#CCCCCC" transform="translate(393,54)"/>
<path d="M0 0 C6.2974869 0.4327387 11.92061125 1.26303179 18 3 C33.39553384 5.41814668 49.53549332 4.02365529 65 3 C66.125 6.75 66.125 6.75 65 9 C58.79381352 11.39097866 52.52833981 11.47684512 45.9375 11.6875 C44.81931885 11.72584961 43.7011377 11.76419922 42.54907227 11.80371094 C28.95822378 12.20248375 16.28707837 10.7436954 3 8 C2.690625 7.05125 2.38125 6.1025 2.0625 5.125 C1.12605258 2.13919592 1.12605258 2.13919592 0 0 Z M67 2 C67.99 2.495 67.99 2.495 69 3 C68.01 3.495 68.01 3.495 67 4 C67 3.34 67 2.68 67 2 Z " fill="#E7E7E7" transform="translate(315,300)"/>
<path d="M0 0 C1.87505446 3.50591579 3.18085298 7.15124477 4.5625 10.875 C7.70316237 18.97136999 12.03222726 25.91318159 17 33 C17.71929687 34.03769531 18.43859375 35.07539063 19.1796875 36.14453125 C22.48710357 40.80611578 25.75900262 45.15659613 30 49 C29.01 49 28.02 49 27 49 C24.48916886 50.25541557 24.12874554 51.50063488 23 54 C20.92539488 51.5307516 18.86775217 49.04786967 16.8125 46.5625 C16.23435547 45.87478516 15.65621094 45.18707031 15.06054688 44.47851562 C11.53630715 40.19765946 8.65879524 35.89647374 6.0612793 30.99780273 C4.82386187 28.66842918 3.42501562 26.46849022 2 24.25 C-2.0424465 17.56844335 -6 9.90494796 -6 2 C-3.03 2.495 -3.03 2.495 0 3 C0 2.01 0 1.02 0 0 Z M-5 3 C-4 5 -4 5 -4 5 Z " fill="#CBCBCB" transform="translate(233,217)"/>
<path d="M0 0 C1.64961389 4.05362438 0.23911189 6.86293024 -1.25 10.8125 C-1.68828125 11.99457031 -2.1265625 13.17664063 -2.578125 14.39453125 C-3.98327727 17.95759594 -5.49123854 21.4795566 -7 25 C7.52 25 22.04 25 37 25 C36.505 23.515 36.505 23.515 36 22 C36.66 22 37.32 22 38 22 C38 23.32 38 24.64 38 26 C37.40531418 25.99555878 36.81062836 25.99111755 36.19792175 25.98654175 C30.01763304 25.94235125 23.8373891 25.91215142 17.65698242 25.89013672 C15.3493467 25.88006893 13.04172375 25.86641377 10.73413086 25.84912109 C7.42037809 25.82490713 4.10679374 25.81352474 0.79296875 25.8046875 C-0.2414888 25.79436493 -1.27594635 25.78404236 -2.3417511 25.77340698 C-3.78290535 25.77318039 -3.78290535 25.77318039 -5.25317383 25.77294922 C-6.09922684 25.768508 -6.94527985 25.76406677 -7.81697083 25.75949097 C-10.29274769 25.86276478 -10.29274769 25.86276478 -13 28 C-13.99 27.34 -14.98 26.68 -16 26 C-14.180206 18.74839665 -11.93841629 11.87619244 -9 5 C-8.01 5.99 -7.02 6.98 -6 8 C-2.21965377 4.52263974 -2.21965377 4.52263974 0 0 Z " fill="#C0C1C1" transform="translate(332,163)"/>
<path d="M0 0 C1.95525969 3.69431278 3.46686939 7.55534006 5 11.4375 C5.26039063 12.09298828 5.52078125 12.74847656 5.7890625 13.42382812 C6.5271563 15.28210975 7.26361927 17.14103887 8 19 C8.391875 19.91910156 8.78375 20.83820313 9.1875 21.78515625 C10 24 10 24 10 27 C9.34 27 8.68 27 8 27 C7.67 27.99 7.34 28.98 7 30 C0.00686022 23.75612519 -3.20938656 14.74925934 -6 6 C-6 4.68 -6 3.36 -6 2 C-3.03 2.495 -3.03 2.495 0 3 C0 2.01 0 1.02 0 0 Z M-5 3 C-4 5 -4 5 -4 5 Z " fill="#D2D2D2" transform="translate(233,217)"/>
<path d="M0 0 C5.2584002 0.67415387 10.02638346 2.24265549 15 4 C13.68 4.33 12.36 4.66 11 5 C11.66 5.66 12.32 6.32 13 7 C13 8.32 13 9.64 13 11 C7.07136283 9.83348574 1.61201606 8.24480642 -4 6 C-2.68 5.34 -1.36 4.68 0 4 C0 2.68 0 1.36 0 0 Z " fill="#C2C1C0" transform="translate(305,296)"/>
<path d="M0 0 C0.99 0 1.98 0 3 0 C3.86580287 1.93232821 4.71729941 3.87107194 5.5625 5.8125 C6.27599609 7.43091797 6.27599609 7.43091797 7.00390625 9.08203125 C8 12 8 12 7 15 C6.21625 14.649375 5.4325 14.29875 4.625 13.9375 C3.75875 13.628125 2.8925 13.31875 2 13 C1.01 13.495 1.01 13.495 0 14 C-3.05164319 7.77464789 -3.05164319 7.77464789 -2.8125 4.1875 C-2 2 -2 2 0 0 Z " fill="#D0D0D0" transform="translate(471,124)"/>
<path d="M0 0 C2.35013936 2.88426194 4.11134357 5.36458732 5 9 C4.57091815 12.07077857 3.84430143 15.01896648 3 18 C2.5875 17.38125 2.175 16.7625 1.75 16.125 C-0.05573879 13.93231719 -1.4090534 13.07211583 -4 12 C-4.12375 12.804375 -4.2475 13.60875 -4.375 14.4375 C-4.58125 15.283125 -4.7875 16.12875 -5 17 C-5.66 17.33 -6.32 17.66 -7 18 C-5.06375702 11.79522136 -2.74390859 5.89174281 0 0 Z " fill="#BCBDBC" transform="translate(314,192)"/>
<path d="M0 0 C-1.75 7.625 -1.75 7.625 -4 11 C-5.98 10.34 -7.96 9.68 -10 9 C-9.1381848 5.76819302 -8.51738545 3.51738545 -6.125 1.125 C-4 0 -4 0 0 0 Z " fill="#EDEDEB" transform="translate(472,235)"/>
<path d="M0 0 C6.44807122 0.60830861 6.44807122 0.60830861 8.9375 2.375 C10 4 10 4 10 7 C2.375 6.125 2.375 6.125 -1 5 C-0.67 3.35 -0.34 1.7 0 0 Z " fill="#EDEDEB" transform="translate(388,54)"/>
<path d="M0 0 C2.40575607 2.18517099 3.79535581 4.25919671 5.1875 7.1875 C5.53167969 7.90292969 5.87585938 8.61835938 6.23046875 9.35546875 C6.48441406 9.89816406 6.73835937 10.44085938 7 11 C4 11 1 11 -2 11 C-2 7 -2 7 -1 5 C-0.34 5 0.32 5 1 5 C0.67 3.35 0.34 1.7 0 0 Z " fill="#BEBEBE" transform="translate(242,239)"/>
<path d="M0 0 C0.33 0.66 0.66 1.32 1 2 C1.99 2 2.98 2 4 2 C4 2.66 4 3.32 4 4 C4.66 4.33 5.32 4.66 6 5 C5.34 5.66 4.68 6.32 4 7 C3.30251417 8.31747324 2.63040043 9.64914193 2 11 C-0.5 9.3125 -0.5 9.3125 -3 7 C-3.5 4.375 -3.5 4.375 -3 2 C-2.01 1.34 -1.02 0.68 0 0 Z " fill="#E2E2E0" transform="translate(260,265)"/>
<path d="M0 0 C-0.44909061 1.48199902 -0.90956564 2.96055236 -1.375 4.4375 C-1.63023437 5.26121094 -1.88546875 6.08492187 -2.1484375 6.93359375 C-3 9 -3 9 -5 10 C-4.67 8.68 -4.34 7.36 -4 6 C-5.32 5.67 -6.64 5.34 -8 5 C-7.1875 2.5625 -7.1875 2.5625 -6 0 C-3 -1 -3 -1 0 0 Z M-10 4 C-9.34 4.99 -8.68 5.98 -8 7 C-8.99 7.66 -9.98 8.32 -11 9 C-10.67 7.35 -10.34 5.7 -10 4 Z " fill="#BDBEBB" transform="translate(476,229)"/>
<path d="M0 0 C2.31 0.33 4.62 0.66 7 1 C7 2.65 7 4.3 7 6 C4.03 5.505 4.03 5.505 1 5 C0.67 3.35 0.34 1.7 0 0 Z " fill="#F0F0F0" transform="translate(226,214)"/>
<path d="M0 0 C6.16618181 -0.40214229 11.17745757 1.03181664 17 3 C16.38125 3.45375 15.7625 3.9075 15.125 4.375 C12.94080167 5.97108919 12.94080167 5.97108919 11 8 C8.875 7.625 8.875 7.625 7 7 C7.99 7 8.98 7 10 7 C10 6.34 10 5.68 10 5 C9.34 4.67 8.68 4.34 8 4 C8.33 3.67 8.66 3.34 9 3 C4.545 2.01 4.545 2.01 0 1 C0 0.67 0 0.34 0 0 Z " fill="#AFAFAE" transform="translate(376,50)"/>
<path d="M0 0 C0.33 0 0.66 0 1 0 C1.33 2.97 1.66 5.94 2 9 C-0.31 9 -2.62 9 -5 9 C-6.35439668 6.29120665 -6.06501451 3.99066732 -6 1 C-5.67 1 -5.34 1 -5 1 C-4.67 2.65 -4.34 4.3 -4 6 C-2.68 5.67 -1.36 5.34 0 5 C0 3.35 0 1.7 0 0 Z " fill="#C4C4C4" transform="translate(230,206)"/>
<path d="M0 0 C5.66153846 1.47692308 5.66153846 1.47692308 7.375 4.125 C7.684375 5.053125 7.684375 5.053125 8 6 C6.02 6.33 4.04 6.66 2 7 C2 6.34 2 5.68 2 5 C1.34 5 0.68 5 0 5 C0 3.35 0 1.7 0 0 Z " fill="#F6F6F6" transform="translate(456,103)"/>
<path d="M0 0 C0.33 0.66 0.66 1.32 1 2 C-1.31 4.64 -3.62 7.28 -6 10 C-6.99 9.67 -7.98 9.34 -9 9 C-6.03 6.03 -3.06 3.06 0 0 Z " fill="#A2A2A2" transform="translate(457,270)"/>
<path d="M0 0 C1.9451 2.91765 2.45276317 4.62537285 3 8 C2.01 8.33 1.02 8.66 0 9 C-0.99 8.01 -1.98 7.02 -3 6 C-2.34 5.34 -1.68 4.68 -1 4 C-0.3574765 1.93125966 -0.3574765 1.93125966 0 0 Z " fill="#B7B7B7" transform="translate(476,130)"/>
<path d="M0 0 C0.66 0.66 1.32 1.32 2 2 C-0.97 4.64 -3.94 7.28 -7 10 C-7.66 9.67 -8.32 9.34 -9 9 C-6.03 6.03 -3.06 3.06 0 0 Z " fill="#9D9D9B" transform="translate(250,70)"/>
<path d="M0 0 C0.66 0.33 1.32 0.66 2 1 C0.68 4.3 -0.64 7.6 -2 11 C-4 7 -4 7 -4 5 C-3.01 5 -2.02 5 -1 5 C-0.67 3.35 -0.34 1.7 0 0 Z " fill="#979797" transform="translate(490,237)"/>
<path d="M0 0 C1.32 0.66 2.64 1.32 4 2 C4 2.99 4 3.98 4 5 C0.25 6.125 0.25 6.125 -2 5 C-1.34 3.35 -0.68 1.7 0 0 Z " fill="#FAFAF8" transform="translate(472,224)"/>
</svg>
